<svg width="24" height="24" viewBox="0 0 24 24" fill="none" xmlns="http://www.w3.org/2000/svg">
<path d="M24 12.9258C23.8399 13.3222 23.812 13.7484 23.7245 14.1597C23.5998 14.7497 23.2425 15.1238 22.7214 15.1666C22.2077 15.2095 21.7852 14.9061 21.5823 14.3533C21.5711 14.3254 21.5618 14.2975 21.5451 14.2584C21.1282 14.2789 20.7168 14.2993 20.3055 14.3198C20.2441 14.3235 20.1864 14.3217 20.1585 14.4017C20.0021 14.8558 19.7881 15.2839 19.5648 15.7083C19.7434 15.9204 19.9128 16.1214 20.0915 16.3336C20.6275 16.1103 21.1151 16.1866 21.5227 16.6035C21.8615 16.9497 21.9601 17.3815 21.7963 17.8319C21.5897 18.3977 21.0481 18.9951 20.4767 19.0119C19.7453 19.0324 19.2037 18.5708 19.1367 17.8431C19.133 17.804 19.133 17.7667 19.1311 17.7332C19.1125 17.7184 19.1032 17.7053 19.0902 17.6997C18.8426 17.5918 18.5783 17.3759 18.3494 17.4075C18.1335 17.4392 17.9585 17.737 17.7613 17.9101C17.4225 18.2097 17.0633 18.4833 16.678 18.7197C16.5775 18.7811 16.5422 18.8444 16.5664 18.9635C16.6389 19.3376 16.6966 19.7136 16.7636 20.1081C16.9702 20.0709 17.175 20.0728 17.3723 20.1472C17.7873 20.3036 18.0423 20.6032 18.0925 21.0406C18.1465 21.5003 17.9678 21.8837 17.5602 22.0996C17.0261 22.3825 16.4565 22.5984 15.8814 22.779C15.431 22.9204 14.9527 22.6971 14.707 22.3081C14.4632 21.9191 14.4893 21.4501 14.7759 21.0648C14.8075 21.022 14.8429 20.981 14.8913 20.9196C14.6456 20.5753 14.3962 20.2291 14.1524 19.8811C14.0891 19.7899 14.0109 19.8308 13.9439 19.8476C13.1641 20.0281 12.3731 20.0691 11.5765 20.0281C11.2657 20.0132 10.9567 19.9686 10.6496 19.9295C10.5658 19.9183 10.5081 19.9146 10.456 20.0021C10.2104 20.3966 9.95723 20.7875 9.69852 21.1932C10.2308 21.6269 10.2271 22.1871 10.0819 22.7752C9.94979 23.3131 9.42679 23.6333 8.89448 23.4676C8.34729 23.2982 7.80568 23.1028 7.27896 22.8795C6.76526 22.6636 6.49725 22.0885 6.59404 21.5245C6.68337 21.0127 7.13192 20.6051 7.67353 20.5437C7.72751 20.5381 7.78148 20.5306 7.85965 20.5195C7.91177 20.0486 7.96202 19.5796 8.01786 19.1087C8.02902 19.0119 7.96388 18.9896 7.90432 18.9579C7.19334 18.5578 6.54937 18.072 5.9817 17.4857C5.9147 17.4168 5.85886 17.3945 5.75836 17.4373C5.43823 17.5769 5.11438 17.7053 4.78867 17.8319C4.69561 17.8691 4.66769 17.9194 4.66583 18.0217C4.6528 18.5671 4.36245 18.9803 3.89715 19.1291C3.40766 19.2855 2.90885 19.1124 2.58128 18.6694C2.44728 18.487 2.32071 18.3009 2.19415 18.1148C1.85914 17.6197 1.87403 17.0576 2.23138 16.65C2.585 16.2461 3.12103 16.1587 3.67753 16.4267C3.92879 16.1419 4.18378 15.8497 4.44435 15.5612C4.50577 15.4924 4.48343 15.4421 4.44807 15.3732C4.36245 15.2076 4.28056 15.0401 4.20984 14.8689C4.1298 14.6697 4.20425 14.4724 4.37548 14.3924C4.55974 14.3068 4.75703 14.3794 4.86126 14.5804C4.98223 14.8149 5.09763 15.0531 5.21302 15.2895C5.31353 15.4924 5.28747 15.6841 5.13858 15.8534C4.75889 16.2871 4.3792 16.7226 3.99207 17.1507C3.82643 17.335 3.6217 17.3331 3.4393 17.1656C3.21037 16.9571 3.00378 16.9292 2.81952 17.0818C2.62595 17.2419 2.61664 17.4634 2.79532 17.7277C2.91816 17.9082 3.03914 18.0887 3.16756 18.2637C3.31273 18.4591 3.55283 18.5187 3.74267 18.4144C3.93252 18.3084 3.99766 18.1073 3.91763 17.871C3.81898 17.5788 3.87854 17.441 4.16517 17.3219C4.66583 17.1135 5.17208 16.918 5.67088 16.7021C5.93703 16.5867 6.15293 16.6296 6.34464 16.838C6.94953 17.4894 7.64748 18.018 8.43104 18.4331C8.66555 18.5578 8.77164 18.7346 8.74186 19.0007C8.67114 19.6428 8.61158 20.2868 8.53713 20.9271C8.49991 21.2398 8.31937 21.3496 8.00855 21.277C7.67167 21.1969 7.40738 21.3235 7.3106 21.612C7.21754 21.893 7.36457 22.161 7.69028 22.282C8.12581 22.444 8.56319 22.604 9.00243 22.7548C9.25183 22.8404 9.36351 22.7622 9.39515 22.4979C9.40073 22.4514 9.40631 22.4049 9.41748 22.3602C9.49565 22.0159 9.40817 21.8279 9.10108 21.6734C8.81445 21.5301 8.75675 21.3421 8.92798 21.0704C9.27231 20.5251 9.62035 19.9816 9.96653 19.4362C10.1024 19.2241 10.2848 19.1347 10.5416 19.1831C11.7217 19.4102 12.8942 19.3804 14.0593 19.0882C14.2938 19.0286 14.4744 19.1068 14.6084 19.2929C14.9694 19.7917 15.3268 20.2905 15.6804 20.7949C15.8386 21.022 15.7865 21.2286 15.5446 21.3607C15.4478 21.4147 15.351 21.465 15.3007 21.5692C15.2337 21.7069 15.243 21.8428 15.3398 21.9638C15.4496 22.1015 15.6041 22.1369 15.7605 22.0773C16.2239 21.9005 16.6855 21.7162 17.1415 21.5227C17.3499 21.4352 17.4281 21.2304 17.3555 21.0443C17.2811 20.8508 17.0968 20.7707 16.8753 20.834C16.8679 20.8359 16.8604 20.8377 16.853 20.8396C16.2388 21.035 16.1941 21.009 16.0787 20.3557C15.9875 19.8439 15.9019 19.3302 15.8163 18.8165C15.7772 18.5875 15.8461 18.394 16.0471 18.273C16.7395 17.8561 17.3611 17.3554 17.912 16.7636C18.0721 16.5905 18.2749 16.5644 18.489 16.6556C18.8817 16.8231 19.2707 16.9962 19.6615 17.1674C19.8439 17.2475 19.9184 17.3852 19.883 17.5806C19.8756 17.6272 19.87 17.6737 19.8644 17.7202C19.8402 17.9547 19.9314 18.1334 20.1361 18.2432C20.3334 18.3493 20.5698 18.3158 20.7373 18.1409C20.8657 18.0068 20.9811 17.8561 21.0779 17.6979C21.2063 17.4876 21.1524 17.2251 20.9718 17.0632C20.8025 16.9125 20.5214 16.8715 20.3483 17.0204C20.058 17.2698 19.8532 17.1842 19.6411 16.918C19.4121 16.6314 19.1739 16.3541 18.9357 16.0749C18.77 15.8795 18.7477 15.6692 18.8743 15.4496C19.146 14.9768 19.3693 14.4836 19.548 13.9699C19.6262 13.7484 19.7769 13.62 20.0114 13.6088C20.6498 13.579 21.2882 13.5493 21.9266 13.5288C22.1388 13.5232 22.2672 13.6702 22.2691 13.8861C22.2691 13.9569 22.2542 14.0276 22.2616 14.0965C22.2821 14.277 22.3752 14.4036 22.5613 14.4315C22.7549 14.4613 22.9186 14.3905 22.9615 14.197C23.0806 13.6758 23.1867 13.1491 23.2797 12.6224C23.3114 12.4437 23.1532 12.2743 22.967 12.2464C22.7586 12.2148 22.6209 12.3171 22.552 12.5051C22.5148 12.6056 22.5148 12.7192 22.4868 12.8234C22.4254 13.0523 22.2188 13.164 21.9973 13.0709C21.4036 12.8215 20.8136 12.5647 20.2273 12.3004C20.0114 12.2036 19.9277 12.0119 19.9389 11.783C19.9779 10.9678 19.8774 10.1675 19.6708 9.38017C19.6113 9.1531 19.6746 8.97257 19.8514 8.84414C20.1585 8.61894 20.4749 8.40676 20.795 8.1983C20.9904 8.07174 21.1486 8.12013 21.3366 8.33603C21.6214 8.66174 22.0699 8.60591 22.2263 8.22436C22.3491 7.92471 21.9992 6.97922 21.7051 6.83404C21.5246 6.74471 21.3403 6.75215 21.1766 6.87313C21.0072 6.99783 20.9309 7.17092 20.97 7.3831C21.0444 7.79256 20.9662 7.90051 20.5568 7.96007C20.272 8.00102 19.9872 8.04755 19.7025 8.08849C19.3414 8.14061 19.1944 8.06616 19.0157 7.74975C18.9282 7.59341 18.8314 7.44266 18.7477 7.28632C18.6397 7.08344 18.6919 6.8843 18.8724 6.78193C19.0455 6.68329 19.2279 6.7354 19.3582 6.9178C19.3619 6.92338 19.3656 6.93269 19.3693 6.93827C19.4549 7.07414 19.5126 7.27329 19.6355 7.33285C19.8123 7.41846 20.0245 7.29562 20.2218 7.29004C20.3446 6.57347 20.674 6.19007 21.2491 6.08212C21.7498 5.98906 22.2598 6.19379 22.5129 6.63303C22.7307 7.009 22.8889 7.41846 22.9615 7.8484C23.0471 8.35651 22.8554 8.77342 22.431 9.05818C22.016 9.3355 21.56 9.35597 21.1356 9.0861C20.9569 8.97257 20.8602 9.02096 20.7094 9.11029C20.4767 9.24802 20.3874 9.38203 20.4656 9.67796C20.6256 10.2884 20.6759 10.9194 20.6629 11.5541C20.661 11.6527 20.6685 11.7253 20.7838 11.77C21.1431 11.9151 21.4948 12.0771 21.8708 12.2408C22.0141 11.917 22.2374 11.6769 22.5743 11.5689C23.1569 11.381 23.7618 11.703 23.9404 12.2911C23.9498 12.3209 23.9479 12.3525 23.9888 12.3562C24 12.5517 24 12.7378 24 12.9258Z" fill="#0671E0"/>
<path d="M2.31885 12.5107C2.129 13.0876 1.72698 13.4171 1.21702 13.4357C0.742409 13.4524 0.239884 13.1751 0.131934 12.7117C-0.0411581 11.9746 -0.054186 11.2078 0.154269 10.4764C0.280831 10.0353 0.6661 9.79331 1.13326 9.76726C1.57809 9.74306 1.93172 9.93663 2.17554 10.3163C2.20904 10.3684 2.23509 10.4224 2.2686 10.482C2.67434 10.3889 3.07263 10.2996 3.47279 10.2065C3.55841 10.186 3.62727 10.1544 3.64402 10.0464C3.7892 9.08606 4.11863 8.18896 4.58393 7.32908C4.4127 7.12807 4.24147 6.92706 4.05907 6.71302C3.77245 6.90287 3.46535 6.9587 3.14522 6.86564C2.47705 6.67394 2.17553 5.89409 2.55336 5.30595C2.77112 4.96722 3.02238 4.64523 3.28481 4.33813C3.56027 4.01614 4.02185 3.9268 4.41828 4.08128C4.81658 4.23576 5.08087 4.608 5.09204 5.03236C5.0939 5.09378 5.09204 5.15706 5.09204 5.24267C5.33772 5.35062 5.59084 5.4623 5.86072 5.57955C6.10639 5.3376 6.35394 5.09006 6.62381 4.86857C6.93091 4.61731 7.25103 4.3828 7.59164 4.17621C7.67539 4.12595 7.74053 4.08314 7.72192 3.96217C7.65678 3.57131 7.60466 3.18046 7.5451 2.77658C7.34782 2.78589 7.1617 2.80264 6.98116 2.74494C6.56611 2.61093 6.24971 2.23869 6.22179 1.82923C6.18829 1.34904 6.36882 0.956324 6.80621 0.753453C7.33293 0.511496 7.87826 0.30118 8.42918 0.120644C8.87028 -0.02453 9.35978 0.191369 9.60918 0.5785C9.85672 0.960046 9.83625 1.44768 9.5552 1.82364C9.51426 1.87948 9.46959 1.93159 9.42306 1.99301C9.66129 2.33734 9.89953 2.67235 10.1303 3.01295C10.1843 3.09112 10.2383 3.10415 10.3276 3.08554C10.8078 2.97945 11.2917 2.91059 11.7849 2.91245C11.904 2.91245 11.9729 2.87895 11.999 2.75238C12.0176 2.66305 12.0511 2.57185 12.092 2.48995C12.1497 2.37642 12.1125 2.31314 12.0232 2.23311C11.6416 1.89065 11.5095 1.45513 11.6304 0.963769C11.7533 0.468689 12.0864 0.141117 12.5852 0.0461957C13.0971 -0.0505869 13.6182 -0.00405679 14.0742 0.26954C14.8317 0.725535 14.895 1.77711 14.2026 2.32803C14.0463 2.45273 14.0146 2.5644 14.0519 2.73749C14.0761 2.85847 14.0817 2.98317 14.0984 3.12276C14.8187 3.30888 15.5148 3.56201 16.1699 3.92122C16.2332 3.95658 16.2816 3.94728 16.3374 3.90075C16.6482 3.6439 16.9628 3.38892 17.2755 3.13579C16.8995 2.55696 16.8976 2.08049 17.2587 1.67103C17.6347 1.24481 18.2675 1.17036 18.7347 1.51841C19.146 1.82737 19.548 2.14749 19.9426 2.47879C20.3502 2.82125 20.4507 3.32936 20.2273 3.78535C20.0059 4.23762 19.5461 4.45911 19.0213 4.36419C18.9915 4.3586 18.9599 4.36046 18.9096 4.35674C18.7328 4.74015 18.5597 5.12914 18.3754 5.51069C18.3308 5.60189 18.3922 5.63539 18.4276 5.68936C18.5392 5.86245 18.5336 6.03369 18.3754 6.17141C18.2172 6.311 18.0497 6.29053 17.8934 6.15466C17.5602 5.86618 17.5156 5.66889 17.6961 5.27431C17.9269 4.77365 18.1558 4.27299 18.3903 3.77605C18.5355 3.46709 18.7123 3.41497 19.0027 3.58806C19.213 3.71277 19.4289 3.69229 19.548 3.53223C19.6746 3.36472 19.6336 3.1451 19.4326 2.98317C19.0808 2.69841 18.7291 2.41737 18.3717 2.14005C18.1502 1.96882 17.9306 1.97812 17.7929 2.15308C17.6533 2.32803 17.6961 2.56999 17.9306 2.73005C18.2991 2.98131 18.2824 3.27538 17.9436 3.52851C17.5007 3.85794 17.08 4.21901 16.6538 4.57264C16.4342 4.75318 16.2164 4.77551 15.967 4.63034C15.3063 4.24507 14.5953 3.97892 13.8527 3.80769C13.5903 3.74627 13.4395 3.59923 13.4042 3.34052C13.3595 2.99248 13.326 2.64443 13.2888 2.29639C13.2664 2.08607 13.3669 1.96137 13.5568 1.88506C13.8639 1.76222 13.9886 1.56866 13.9569 1.28203C13.929 1.02333 13.7559 0.839068 13.4451 0.792538C13.2032 0.755314 12.9593 0.665976 12.7099 0.751592C12.4754 0.831623 12.3172 1.01402 12.3061 1.24109C12.2949 1.49235 12.4103 1.67289 12.6318 1.78642C12.9705 1.95951 13.0059 2.04885 12.8774 2.41178C12.7825 2.68166 12.6876 2.95339 12.5871 3.22141C12.4829 3.50059 12.3358 3.60854 12.0474 3.6104C11.4462 3.61412 10.8525 3.68857 10.268 3.82816C10.0224 3.88586 9.82322 3.82071 9.67618 3.6104C9.33 3.1116 8.98195 2.61466 8.63949 2.11399C8.47571 1.8739 8.53154 1.67475 8.78653 1.53516C9.05268 1.38998 9.13085 1.22248 9.03221 1.01402C8.93356 0.805566 8.75117 0.751592 8.47385 0.85768C8.0681 1.01216 7.66236 1.16664 7.25848 1.32484C6.98116 1.43279 6.87507 1.6245 6.96255 1.84226C7.05375 2.0656 7.24731 2.12888 7.53022 2.01535C7.73309 1.93532 7.92479 1.85528 8.10719 2.05443C8.20025 2.15494 8.19839 2.28708 8.217 2.40434C8.30448 2.93292 8.38079 3.46523 8.45896 3.99567C8.51107 4.35674 8.4422 4.49819 8.12394 4.68804C7.47066 5.07517 6.88066 5.54419 6.36138 6.10069C6.11384 6.36498 5.95378 6.39476 5.61318 6.24772C5.27072 6.10069 4.92825 5.95551 4.58765 5.80662C4.28056 5.67261 4.22286 5.53674 4.34198 5.2222C4.41084 5.0398 4.3885 4.87788 4.21355 4.77551C4.04046 4.67501 3.88226 4.72154 3.76128 4.87974C3.57144 5.12728 3.38159 5.37296 3.1992 5.62608C3.07263 5.8029 3.09869 6.01693 3.24759 6.12675C3.39834 6.23656 3.5733 6.20678 3.72219 6.04671C4.01626 5.72659 4.16888 5.73217 4.45179 6.06533C4.69933 6.35567 4.94687 6.64788 5.19627 6.93637C5.36936 7.13738 5.39542 7.357 5.26513 7.58221C4.76447 8.45511 4.45737 9.39316 4.30661 10.3833C4.26939 10.629 4.1391 10.7779 3.90087 10.8337C3.2904 10.9789 2.67992 11.1278 2.06758 11.2674C1.85355 11.3158 1.67301 11.1743 1.63765 10.9473C1.58553 10.616 1.43478 10.4689 1.16676 10.4875C0.926667 10.5043 0.775911 10.6886 0.766605 10.9994C0.755437 11.4126 0.749854 11.8257 0.751715 12.2389C0.753576 12.5181 0.921084 12.7005 1.1649 12.708C1.4143 12.7173 1.59298 12.5516 1.62648 12.278C1.63392 12.2092 1.62834 12.1384 1.63392 12.0677C1.64881 11.8164 1.82749 11.6601 2.07317 11.7141C2.69481 11.8499 3.31459 11.9933 3.93251 12.144C4.13352 12.1943 4.26753 12.332 4.30661 12.5479C4.3457 12.7694 4.39595 12.989 4.43317 13.2105C4.46481 13.3985 4.34384 13.5827 4.17074 13.6237C3.97718 13.6683 3.80781 13.5827 3.74453 13.3929C3.70917 13.2905 3.66822 13.1807 3.6738 13.0765C3.68683 12.8234 3.52863 12.7712 3.3332 12.7359C3.1657 12.7061 2.99819 12.667 2.83254 12.6298C2.65945 12.5944 2.4938 12.5535 2.31885 12.5107Z" fill="#0671E0"/>
<path d="M9.76368 5.85877C11.074 5.85691 12.0511 6.81729 12.0101 8.07546C11.9953 8.54076 11.8613 8.97628 11.6212 9.3783C11.4909 9.59792 11.2992 9.66121 11.1149 9.55512C10.9288 9.44717 10.873 9.2443 10.9977 9.03026C11.2433 8.61149 11.3494 8.16294 11.2564 7.68833C11.1224 7.00713 10.5212 6.56789 9.76554 6.56602C8.77538 6.56416 7.77591 7.33842 7.52279 8.29694C7.21011 9.49184 8.0644 10.3796 9.31141 10.1916C9.55895 10.1544 9.78787 10.0632 10.0149 9.95714C10.2159 9.86408 10.4114 9.92736 10.5007 10.0949C10.5901 10.2605 10.5472 10.4671 10.3779 10.5658C9.50311 11.0701 8.21888 11.1074 7.4167 10.3536C6.74294 9.7189 6.60149 8.92975 6.83973 8.06429C7.18591 6.81543 8.46083 5.86063 9.76368 5.85877Z" fill="#0671E0"/>
<path d="M9.85483 13.4636C9.86041 12.546 10.5881 11.8406 11.5187 11.8499C12.3991 11.8574 13.1008 12.5926 13.097 13.5027C13.0933 14.3886 12.3507 15.1089 11.4573 15.094C10.5584 15.081 9.84925 14.3588 9.85483 13.4636ZM11.4759 14.3793C11.9729 14.3793 12.3823 13.9773 12.3916 13.4841C12.401 12.9946 11.9692 12.5572 11.4759 12.5572C10.9753 12.5572 10.5639 12.9778 10.5677 13.4859C10.5714 13.9792 10.9771 14.3793 11.4759 14.3793Z" fill="#0671E0"/>
<path d="M17.1805 7.41284C17.1675 7.947 16.9069 8.31738 16.4658 8.55003C15.874 8.86271 15.2784 8.83666 14.7219 8.46255C13.9979 7.97678 13.9532 7.03687 14.6158 6.46921C15.4385 5.76195 16.8157 6.10069 17.1321 7.0834C17.1675 7.20066 17.1601 7.31605 17.1805 7.41284ZM15.6339 8.03448C16.0768 8.05309 16.464 7.77205 16.4658 7.42772C16.4677 7.09085 16.1029 6.81353 15.6618 6.81725C15.2244 6.81911 14.8764 7.08154 14.8689 7.41284C14.8633 7.75157 15.1872 8.01586 15.6339 8.03448Z" fill="#0671E0"/>
<path d="M7.55814 13.86C8.24679 13.8619 8.81632 14.4314 8.8219 15.1237C8.82748 15.8198 8.24679 16.4024 7.54511 16.4061C6.83041 16.4098 6.26088 15.8329 6.26461 15.1126C6.27019 14.4072 6.83786 13.8581 7.55814 13.86ZM8.09417 15.1368C8.09603 14.8222 7.84477 14.5635 7.53953 14.5654C7.23802 14.5672 6.97186 14.8353 6.97559 15.1368C6.97931 15.4327 7.23057 15.684 7.52836 15.6896C7.84663 15.6933 8.09231 15.455 8.09417 15.1368Z" fill="#0671E0"/>
<path d="M17.6831 12.8048C17.685 13.5009 17.1266 14.0704 16.4324 14.0816C15.7437 14.0946 15.1556 13.5046 15.1556 12.8029C15.1574 12.1124 15.7307 11.5392 16.4212 11.541C17.1154 11.5429 17.6812 12.1105 17.6831 12.8048ZM16.4379 12.2669C16.1327 12.2594 15.8814 12.4921 15.8703 12.7936C15.8591 13.0895 16.1048 13.3464 16.4044 13.352C16.7134 13.3576 16.9609 13.1286 16.974 12.8271C16.987 12.5349 16.7376 12.2725 16.4379 12.2669Z" fill="#0671E0"/>
<path d="M11.8333 17.2306C11.8352 16.5383 12.3842 16.0041 13.0878 16.0097C13.7634 16.0153 14.3125 16.5699 14.3106 17.2455C14.3087 17.923 13.7355 18.4925 13.0599 18.4888C12.3749 18.4851 11.8296 17.9249 11.8333 17.2306ZM13.0561 17.7611C13.3521 17.7648 13.5791 17.5508 13.5866 17.2586C13.594 16.9663 13.3521 16.7151 13.0636 16.7169C12.7881 16.7188 12.5406 16.9645 12.5369 17.2399C12.535 17.5173 12.7714 17.7555 13.0561 17.7611Z" fill="#0671E0"/>
<path d="M15.753 16.101C15.6525 16.0954 15.5501 16.101 15.4515 16.0805C15.2728 16.0433 15.163 15.9297 15.1574 15.7417C15.1518 15.5407 15.2654 15.4086 15.4534 15.3825C15.6432 15.3546 15.8423 15.3565 16.0322 15.3788C16.2202 15.4011 16.3356 15.5277 16.3356 15.7306C16.3356 15.9334 16.2202 16.047 16.0322 16.0823C15.9429 16.0991 15.8461 16.0861 15.753 16.0861C15.7549 16.0916 15.753 16.0972 15.753 16.101Z" fill="#0671E0"/>
<path d="M12.9631 5.25012C13.0412 5.25012 13.1175 5.24639 13.1957 5.25198C13.3911 5.26501 13.5233 5.40832 13.5233 5.60188C13.5233 5.79545 13.3949 5.94062 13.1976 5.95179C13.0431 5.9611 12.8868 5.95924 12.7323 5.95179C12.522 5.94248 12.388 5.79545 12.3917 5.59258C12.3954 5.40087 12.5313 5.26315 12.7286 5.25198C12.8086 5.24639 12.8868 5.25012 12.9631 5.25012Z" fill="#0671E0"/>
<path d="M14.1859 11.0943C14.0928 11.0906 14.0016 11.098 13.9123 11.0608C13.7671 10.9994 13.6908 10.8896 13.6833 10.7407C13.6684 10.4782 13.8862 10.3442 14.2826 10.3647C14.573 10.3796 14.7275 10.5341 14.6977 10.7779C14.6698 11.0012 14.5209 11.0943 14.1859 11.0943Z" fill="#0671E0"/>
<path d="M6.78014 12.131C6.69638 12.1198 6.61077 12.1161 6.52887 12.0956C6.3595 12.0509 6.26645 11.9337 6.26645 11.7587C6.26458 11.5819 6.35764 11.4702 6.52515 11.4163C6.66288 11.3716 6.80247 11.3827 6.9402 11.3976C7.14866 11.4181 7.30127 11.5838 7.28638 11.7662C7.26963 11.9709 7.14121 12.0844 6.94392 12.1179C6.89181 12.1272 6.83597 12.1198 6.782 12.1198C6.78014 12.1216 6.78014 12.1254 6.78014 12.131Z" fill="#0671E0"/>
<path d="M10.0465 17.2307C9.67988 17.2307 9.5254 17.1134 9.54028 16.851C9.55517 16.5942 9.70966 16.5141 10.1694 16.5253C10.4113 16.5327 10.5714 16.6742 10.5677 16.8808C10.5639 17.1172 10.3964 17.2307 10.0465 17.2307Z" fill="#0671E0"/>
</svg>
