<svg width="24" height="24" viewBox="0 0 24 24" fill="none" xmlns="http://www.w3.org/2000/svg">
<path d="M0 6.70551C0.0809009 6.45877 0.141577 6.20595 0.244725 5.96932C0.732153 4.86502 1.5897 4.22995 2.7931 4.01556C2.7931 3.51802 2.7931 3.02048 2.7931 2.52294C2.7931 1.67753 3.15513 1.03436 3.8974 0.629859C4.60326 0.24558 5.46283 0.350751 6.08172 0.868516C6.13431 0.913012 6.18689 0.957507 6.2415 1.002C7.16984 -0.468371 9.21259 -0.274208 9.85979 1.28111C11.1158 0.296143 12.6124 0.939304 13.0432 2.06989C13.1262 2.08607 13.1646 2.01529 13.2192 1.97888C13.8745 1.53797 14.5622 1.45909 15.27 1.82315C15.988 2.19327 16.3662 2.80205 16.3925 3.60903C16.4128 4.2259 16.4047 4.84277 16.3925 5.45964C16.3885 5.63762 16.4492 5.70841 16.611 5.77515C19.4021 6.91181 21.1738 8.95051 21.8129 11.8913C22.3064 14.1605 21.8594 16.2963 20.5832 18.248C20.5448 18.3067 20.5084 18.3633 20.4578 18.4402C20.7005 18.6788 20.9412 18.9094 21.1778 19.146C21.9909 19.9571 22.8019 20.7681 23.6129 21.5791C24.1287 22.0969 24.1287 22.73 23.615 23.2518C23.5502 23.3185 23.4795 23.3812 23.4168 23.45C23.1983 23.6947 22.9475 23.8929 22.63 23.994C22.4743 23.994 22.3185 23.994 22.1608 23.994C21.8513 23.8868 21.6228 23.6724 21.3963 23.4459C20.4679 22.5095 19.5335 21.5771 18.5991 20.6447C18.5405 20.5861 18.4778 20.5294 18.4151 20.4708C17.3209 21.2292 16.1276 21.7066 14.8008 21.9068C14.8008 22.1192 14.8008 22.3275 14.8008 22.5358C14.8008 23.3751 14.5763 23.7109 13.8199 23.9961C10.9782 23.9961 8.13458 23.9961 5.29294 23.9961C5.28889 23.9839 5.28687 23.9617 5.27878 23.9576C4.62146 23.6907 4.39696 23.361 4.39494 22.6632C4.39494 21.6944 4.39494 20.7277 4.39494 19.7589C4.39494 18.9438 4.14819 18.2197 3.63852 17.5766C2.71018 16.4116 1.79398 15.2365 0.873729 14.0655C0.529901 13.6266 0.28113 13.1392 0.131464 12.5991C0.0869684 12.4293 0.0991036 12.2472 0 12.0935C0 10.2975 0 8.50151 0 6.70551ZM15.5936 5.43941C15.5734 4.76794 15.6381 4.11062 15.5613 3.45937C15.4905 2.85261 14.9242 2.37934 14.3518 2.40968C13.7208 2.44406 13.2516 2.90924 13.2091 3.54836C13.1889 3.8396 13.0291 4.01151 12.7844 4.00545C12.5417 3.99938 12.39 3.8214 12.3839 3.52611C12.3778 3.26116 12.394 2.99419 12.3738 2.72924C12.3414 2.27215 12.1007 1.94248 11.6962 1.7382C11.2938 1.53595 10.8973 1.57033 10.5252 1.82315C10.2016 2.0436 10.0418 2.35507 10.0095 2.74542C9.98317 3.06902 9.82339 3.22071 9.5645 3.20251C9.3218 3.18633 9.19034 3.01239 9.18832 2.70497C9.18629 2.46226 9.19236 2.22158 9.18629 1.97888C9.16809 1.37617 8.66853 0.864471 8.05368 0.809863C7.49142 0.761323 6.94938 1.19616 6.82803 1.78067C6.79163 1.96068 6.79972 2.13866 6.7977 2.31664C6.79365 2.618 6.65612 2.798 6.41746 2.81014C6.18487 2.82429 6.02105 2.64834 5.99475 2.35709C5.93812 1.72404 5.47497 1.24268 4.89855 1.21841C4.17853 1.18807 3.60818 1.72607 3.60818 2.45215C3.60616 5.07536 3.60818 7.69857 3.60616 10.3238C3.60616 10.613 3.4484 10.7991 3.20772 10.8052C2.96906 10.8112 2.80524 10.6272 2.79512 10.34C2.7931 10.2773 2.79512 10.2146 2.79512 10.1519C2.79512 8.48129 2.79512 6.81068 2.79512 5.13806C2.79512 5.05311 2.79512 4.96817 2.79512 4.88524C2.70209 4.85491 2.62928 4.87715 2.55444 4.8994C1.4906 5.20683 0.806986 6.12707 0.802941 7.27384C0.798896 8.64107 0.806986 10.0063 0.800919 11.3735C0.796874 12.2412 1.06182 13.0016 1.60588 13.6792C2.52411 14.8219 3.42413 15.9808 4.3282 17.1357C4.91877 17.8921 5.21002 18.7517 5.20395 19.7124C5.19788 20.673 5.20193 21.6337 5.20193 22.5944C5.20193 23.0758 5.31721 23.1911 5.79048 23.1911C8.32874 23.1911 10.867 23.1911 13.4033 23.1911C13.474 23.1911 13.5448 23.1972 13.6136 23.187C13.8179 23.1527 13.9675 23.0475 13.9756 22.825C13.9857 22.5479 13.9776 22.2688 13.9776 21.9938C11.3241 22.0565 9.08112 21.1524 7.3276 19.1824C5.568 17.2064 4.8945 14.8623 5.30507 12.2492C6.03116 7.6561 10.5272 4.29062 15.5936 5.43941ZM13.5893 21.1868C17.8002 21.1746 21.1839 17.791 21.1798 13.5983C21.1758 9.39951 17.7517 5.98752 13.561 6.0037C9.3845 6.01988 5.98262 9.4521 5.9988 13.6387C6.01296 17.797 9.43304 21.1989 13.5893 21.1868ZM20.1767 21.0897C20.832 21.7409 21.4933 22.4003 22.1587 23.0576C22.3448 23.2417 22.4682 23.2396 22.6583 23.0576C22.7938 22.9282 22.9253 22.7967 23.0547 22.6612C23.2266 22.4812 23.2327 22.3517 23.0628 22.1778C22.4014 21.5063 21.734 20.8389 21.0828 20.1816C20.7774 20.485 20.4881 20.7762 20.1767 21.0897ZM19.5558 20.4162C19.845 20.127 20.1362 19.8377 20.3729 19.6011C20.2394 19.4454 20.0897 19.2714 19.938 19.0935C19.669 19.4049 19.3758 19.682 19.0845 19.9551C19.2564 20.1229 19.4182 20.2807 19.5558 20.4162Z" fill="#0671E0"/>
<path d="M13.9857 19.5667C13.9857 18.962 13.9979 18.3856 13.9837 17.8091C13.9655 17.079 14.105 16.3914 14.4226 15.732C14.7381 15.0747 15.0172 14.3992 15.3165 13.7338C15.5026 13.3232 15.5916 12.8924 15.5916 12.4434C15.5936 11.0155 15.5896 9.58557 15.5956 8.15767C15.5956 7.99586 15.5512 7.91294 15.3954 7.88058C15.2963 7.86035 15.1992 7.83204 15.1042 7.79766C14.8615 7.71271 14.7502 7.51248 14.8129 7.28798C14.8716 7.07764 15.092 6.96236 15.3347 7.02708C17.066 7.49428 18.4191 8.48734 19.3676 10.0063C21.8897 14.0472 19.5517 19.3847 14.8756 20.2827C11.2149 20.9845 7.66938 18.602 6.93116 14.9392C6.18081 11.2137 8.6321 7.59136 12.3738 6.9037C12.7257 6.83898 13.0817 6.79651 13.4437 6.79853C13.7976 6.80055 13.9918 6.93 14.0039 7.18483C14.0161 7.43765 13.8259 7.59338 13.474 7.60552C12.3374 7.64597 11.2715 7.93721 10.331 8.5824C8.41569 9.89299 7.49747 11.7153 7.62893 14.0412C7.77051 16.5552 9.63932 18.9316 12.4729 19.4858C12.9603 19.5809 13.4578 19.6314 13.9857 19.5667ZM14.7927 19.4494C16.7363 19.1298 19.309 17.3338 19.5699 14.0007C19.758 11.5919 18.3443 9.25387 16.3986 8.34172C16.3986 8.42464 16.3986 8.50149 16.3986 8.57633C16.3986 9.88894 16.3966 11.1995 16.3986 12.5122C16.3986 12.7629 16.3662 13.0077 16.3197 13.2544C16.2145 13.8025 15.9395 14.2859 15.7271 14.7936C15.4561 15.4448 15.086 16.0597 14.906 16.7433C14.6734 17.6332 14.8574 18.5453 14.7927 19.4494Z" fill="#0671E0"/>
<path d="M11.6072 14.203C11.6072 14.6035 11.4636 14.8098 11.1906 14.8078C10.9176 14.8037 10.782 14.6015 10.782 14.1949C10.782 13.7884 10.9176 13.5922 11.1987 13.5943C11.4778 13.5983 11.6072 13.7904 11.6072 14.203Z" fill="#0671E0"/>
<path d="M14.8028 11.0256C14.7968 11.1288 14.817 11.244 14.7644 11.3573C14.6815 11.5353 14.5399 11.6182 14.3538 11.6C14.1698 11.5818 14.0302 11.4746 14.0039 11.2784C13.9837 11.1166 13.9797 10.9508 13.9918 10.789C14.01 10.5402 14.1698 10.3986 14.4004 10.4007C14.633 10.4047 14.7907 10.5685 14.8028 10.8234C14.8049 10.8881 14.8028 10.9508 14.8028 11.0256Z" fill="#0671E0"/>
<path d="M10.782 12.227C10.782 11.7962 10.9256 11.5859 11.1987 11.5899C11.4697 11.5939 11.6072 11.8023 11.6072 12.2088C11.6072 12.3888 11.6113 12.5708 11.4555 12.7043C11.2351 12.8944 10.9176 12.8034 10.8104 12.5243C10.7719 12.4151 10.7942 12.3079 10.782 12.227Z" fill="#0671E0"/>
<path d="M14.7988 13.0118C14.8008 13.4345 14.6592 13.6185 14.3498 13.5943C14.3114 13.5902 14.2709 13.5862 14.2365 13.572C13.923 13.4264 13.9898 13.1392 13.9837 12.8803C13.9797 12.67 14.0444 12.496 14.2628 12.4212C14.5076 12.3363 14.7563 12.492 14.7948 12.757C14.8089 12.8399 14.7988 12.9268 14.7988 13.0118Z" fill="#0671E0"/>
<path d="M13.203 13.4041C13.207 13.8046 13.0574 14.0169 12.7843 14.0089C12.5174 14.0008 12.3819 13.7985 12.3819 13.4082C12.3819 13.3232 12.3778 13.2342 12.394 13.1513C12.4324 12.9308 12.5882 12.7994 12.7945 12.7974C13.0048 12.7974 13.1727 12.947 13.203 13.1695C13.2111 13.2464 13.203 13.3273 13.203 13.4041Z" fill="#0671E0"/>
<path d="M14.8069 8.99906C14.8028 9.09209 14.815 9.18917 14.7907 9.27816C14.7401 9.48042 14.6066 9.60177 14.3902 9.60784C14.186 9.6139 14.0221 9.4703 13.9979 9.24985C13.9797 9.09614 13.9797 8.93838 13.9918 8.78265C14.012 8.53994 14.186 8.38623 14.4064 8.39634C14.6208 8.40443 14.7846 8.57635 14.8008 8.81096C14.8048 8.87366 14.8008 8.93636 14.8008 8.99906C14.8028 8.99906 14.8048 8.99906 14.8069 8.99906Z" fill="#0671E0"/>
<path d="M9.19035 11.7901C9.1863 11.3674 9.3299 11.1813 9.6353 11.2056C9.67373 11.2096 9.71418 11.2137 9.74856 11.2278C10.054 11.3654 9.99936 11.6425 10.0034 11.8953C10.0074 12.1097 9.95891 12.2977 9.72429 12.3807C9.48159 12.4656 9.22877 12.3119 9.19035 12.049C9.18023 11.962 9.19035 11.875 9.19035 11.7901Z" fill="#0671E0"/>
<path d="M9.1863 15.7847C9.1863 15.3943 9.32383 15.1941 9.5908 15.1921C9.86182 15.188 10.0034 15.3903 10.0034 15.7786C10.0034 15.8575 10.0054 15.9343 9.99733 16.0132C9.96901 16.2579 9.80721 16.4096 9.58676 16.4056C9.36226 16.3995 9.19843 16.2256 9.18832 15.9748C9.18427 15.908 9.1863 15.8474 9.1863 15.7847Z" fill="#0671E0"/>
<path d="M13.201 9.41362C13.201 9.49048 13.2111 9.57138 13.199 9.64621C13.1646 9.85858 13.0008 10.0002 12.8006 10.0042C12.5983 10.0082 12.4264 9.87476 12.3981 9.65835C12.3758 9.49857 12.3758 9.3307 12.392 9.1689C12.4163 8.93833 12.5862 8.79877 12.8006 8.80282C13.0129 8.80484 13.1747 8.95451 13.2031 9.18103C13.2132 9.25789 13.2051 9.33677 13.2051 9.41362C13.2031 9.41362 13.201 9.41362 13.201 9.41362Z" fill="#0671E0"/>
<path d="M13.2111 11.418C13.2051 11.5029 13.2131 11.5919 13.1909 11.6728C13.1383 11.8731 13.0149 12.0005 12.7945 12.0005C12.576 12.0005 12.4466 11.8811 12.4001 11.6748C12.3617 11.505 12.3698 11.331 12.392 11.1632C12.4223 10.9387 12.6044 10.7849 12.8046 10.793C13.0068 10.8011 13.1747 10.9629 13.201 11.1854C13.2091 11.2623 13.203 11.3411 13.203 11.42C13.2071 11.416 13.2091 11.416 13.2111 11.418Z" fill="#0671E0"/>
<path d="M13.207 15.4064C13.207 15.4529 13.2091 15.4994 13.207 15.5459C13.1969 15.819 13.0412 15.9949 12.8066 16.001C12.572 16.0071 12.4001 15.8352 12.3839 15.5682C12.3758 15.4509 12.3758 15.3336 12.3839 15.2183C12.4041 14.9614 12.5659 14.7996 12.7944 14.8017C13.0331 14.8017 13.1929 14.9736 13.205 15.2446C13.2091 15.2972 13.207 15.3518 13.207 15.4064Z" fill="#0671E0"/>
<path d="M13.2071 17.4006C13.2071 17.8152 13.0736 18.0033 12.7864 17.9972C12.5093 17.9911 12.3839 17.8071 12.3819 17.4046C12.3819 16.9961 12.5194 16.7898 12.7925 16.7877C13.0655 16.7857 13.2071 16.994 13.2071 17.4006Z" fill="#0671E0"/>
<path d="M11.6073 10.1398C11.6073 10.5969 11.4697 10.7991 11.2028 10.8052C10.9257 10.8113 10.7821 10.607 10.7821 10.2045C10.7821 10.1256 10.776 10.0467 10.7861 9.97191C10.8144 9.7555 10.9702 9.61191 11.1704 9.60382C11.3909 9.5937 11.5527 9.72517 11.5931 9.95371C11.6113 10.0366 11.6073 10.1236 11.6073 10.1398Z" fill="#0671E0"/>
<path d="M9.1863 13.7742C9.19439 13.6731 9.17012 13.5578 9.22472 13.4445C9.30765 13.2665 9.4472 13.1836 9.6353 13.2018C9.82339 13.22 9.9589 13.3272 9.98519 13.5214C10.0054 13.6832 10.0095 13.849 9.99733 14.0108C9.9771 14.2697 9.80721 14.4133 9.56653 14.3991C9.34608 14.387 9.20045 14.2232 9.18832 13.9764C9.18427 13.9117 9.1863 13.849 9.1863 13.7742Z" fill="#0671E0"/>
<path d="M10.7861 16.1931C10.782 15.8109 10.8892 15.6329 11.136 15.6046C11.411 15.5722 11.591 15.7441 11.6072 16.0516C11.6355 16.5532 11.498 16.8039 11.1946 16.8039C10.9883 16.8039 10.8164 16.6502 10.7881 16.4278C10.778 16.3509 10.7861 16.272 10.7861 16.1931Z" fill="#0671E0"/>
</svg>
