<svg width="24" height="28" viewBox="0 0 24 28" fill="none" xmlns="http://www.w3.org/2000/svg">
<path d="M12.5757 27.0577C14.7398 27.0577 16.8961 27.0577 19.068 27.0577C19.1341 26.9279 19.0952 26.7814 19.0952 26.6416C19.0991 26.0189 19.0952 25.3963 19.0991 24.777C19.0991 24.4407 19.2859 24.2676 19.6323 24.2643C19.9982 24.261 20.185 24.4341 20.1889 24.787C20.1928 25.5362 20.1889 26.282 20.1889 27.0511C21.088 27.0511 21.9793 27.0511 22.8862 27.0511C22.9446 27.0078 22.9135 26.9346 22.9135 26.8713C22.9135 24.9269 22.9251 22.9824 22.9135 21.0413C22.8979 18.5808 21.0413 16.5864 18.2467 16.0104C18.1805 15.9971 18.1144 15.9971 18.0287 15.9871C18.0287 17.0525 18.0287 18.1047 18.0287 19.1734C19.0485 19.4032 19.753 19.9326 20.0838 20.8049C20.2356 21.2045 20.1967 21.6107 20.1811 22.0169C20.1734 22.2499 19.9204 22.4064 19.6362 22.4031C19.3404 22.3997 19.1225 22.2266 19.0991 21.9736C19.0796 21.7239 19.1225 21.4708 19.0563 21.2178C18.8734 20.4953 18.1533 20.0092 17.3437 20.0757C16.4719 20.149 15.8491 20.7183 15.8219 21.4675C15.8141 21.6506 15.8374 21.8371 15.8141 22.0202C15.7829 22.2666 15.6 22.3964 15.312 22.4097C15.0162 22.4231 14.7593 22.2832 14.7359 22.0568C14.6231 20.9348 14.915 19.8793 16.4407 19.3C16.5847 19.2467 16.7365 19.2101 16.8961 19.1635C16.8961 18.0814 16.8961 16.9926 16.8961 15.8872C16.6431 15.8572 16.4407 15.744 16.3745 15.5143C16.285 15.1947 16.5458 14.9383 16.9701 14.9383C18.6281 14.9416 20.1111 15.3944 21.3838 16.2934C23.1081 17.512 23.9877 19.0935 23.9955 21.0147C24.0033 23.1322 23.9994 25.2531 23.9955 27.3707C23.9955 27.8568 23.8359 28 23.2793 28C15.7596 28 8.23593 28 0.716168 28C0.159581 28 0 27.8602 0 27.374C0 25.2565 0 23.1356 0 21.018C0.00389221 18.0281 2.46377 15.5243 5.90838 15.0115C6.25479 14.9616 6.60509 14.9283 6.95928 14.935C7.3991 14.945 7.5976 15.0482 7.64042 15.3179C7.69102 15.6342 7.53922 15.7973 7.09162 15.9039C7.09162 17.1058 7.09551 18.3111 7.08772 19.5131C7.08772 19.6596 7.16946 19.7062 7.2979 19.7661C7.99461 20.0924 8.33323 20.7283 8.14251 21.331C7.94012 21.9736 7.30958 22.3997 6.56227 22.4031C5.78772 22.4064 5.15329 21.9836 4.9509 21.3276C4.76407 20.7283 5.09491 20.0991 5.76826 19.7794C5.89671 19.7162 6.00569 19.6795 6.00569 19.5097C5.99401 18.3444 5.9979 17.1791 5.9979 15.9904C5.70988 15.9838 5.46078 16.0703 5.21168 16.1403C2.84132 16.8095 1.22605 18.5375 1.12096 20.7417C1.02365 22.8359 1.1015 24.9368 1.1015 27.0478C2.0006 27.0478 2.89192 27.0478 3.81826 27.0478C3.81826 26.282 3.81437 25.5162 3.81826 24.7537C3.81826 24.4008 4.07904 24.2077 4.47216 24.2676C4.77575 24.3142 4.90808 24.4807 4.90808 24.7404C4.90419 25.5062 4.90808 26.272 4.90808 27.0511C7.09551 27.0511 9.25958 27.0511 11.4159 27.0511C11.5716 26.1321 11.3302 25.2565 11.0967 24.3775C10.3105 21.4475 9.52425 18.5175 8.76138 15.5842C8.67575 15.2513 8.73413 14.8884 8.72635 14.5388C8.72245 14.4222 8.71467 14.3057 8.72635 14.1892C8.81587 13.4467 8.73413 12.7641 8.00239 12.2281C7.74162 12.0383 7.59371 11.7386 7.48473 11.4523C7.40688 11.2459 7.2512 11.1859 7.02545 11.1393C5.92006 10.9196 5.23503 10.3402 4.96257 9.38467C4.61617 8.17272 5.72545 7.31703 6.86976 7.46686C6.92425 7.47352 6.98263 7.47352 7.05269 7.47352C7.13054 7.33701 7.07994 7.19051 7.08772 7.05067C7.10329 6.70107 7.28623 6.5346 7.69491 6.53127C8.69521 6.52794 9.69551 6.51795 10.6958 6.5346C11.5754 6.54792 12.1593 6.19499 12.5174 5.53907C12.6419 5.31267 12.7704 5.12954 13.1012 5.1362C13.4165 5.14286 13.5371 5.31933 13.6539 5.53575C14.012 6.19166 14.5958 6.56124 15.4716 6.5346C15.744 6.52794 16.0165 6.53127 16.2889 6.5346C16.7171 6.54126 16.9 6.70441 16.9039 7.07398C16.9039 7.2005 16.9039 7.32702 16.9039 7.48351C17.0207 7.45687 17.1413 7.53346 17.1841 7.37031C17.6707 5.60233 17.5578 3.92093 16.0515 2.50921C14.553 1.10083 12.6614 0.618046 10.5245 1.13079C8.43054 1.63355 7.14221 2.85548 6.66347 4.68339C6.55449 5.10291 6.52724 5.52576 6.55449 5.95526C6.57784 6.32151 6.37545 6.52794 6.02126 6.5346C5.66707 6.54126 5.47635 6.33816 5.45299 5.97191C5.27006 3.08189 7.48473 0.960988 9.97186 0.271778C13.759 -0.77702 17.8302 1.32058 18.4608 4.65675C18.6398 5.59901 18.5269 6.53127 18.3012 7.46021C18.2739 7.56342 18.2311 7.65332 18.3713 7.73989C19.138 8.21601 19.2275 8.86859 18.9745 9.58444C18.6787 10.4268 17.9937 10.9362 17.0051 11.1393C16.7521 11.1893 16.6003 11.2658 16.4991 11.4856C16.2772 11.9917 15.9075 12.4245 15.4521 12.7941C15.3159 12.904 15.2653 13.0172 15.2692 13.1737C15.2808 13.5732 15.2419 13.9727 15.2769 14.369C15.3898 15.5077 14.9734 16.5731 14.6931 17.6552C13.9964 20.3255 13.2608 22.9891 12.5835 25.6593C12.4784 26.0955 12.5757 26.5683 12.5757 27.0577ZM8.18922 7.4702C8.18922 8.06951 8.19311 8.63219 8.18922 9.19488C8.18533 9.63105 8.17754 10.0705 8.28653 10.5001C8.73024 12.248 10.688 13.2669 12.5757 13.0272C14.1871 12.8241 15.5689 11.6687 15.7674 10.287C15.8763 9.51119 15.8024 8.73541 15.8219 7.95963C15.8257 7.79982 15.853 7.63667 15.7868 7.46021C14.7087 7.56342 13.7901 7.30372 13.0895 6.55791C12.4395 7.25377 11.6222 7.51348 10.6374 7.48018C9.83563 7.45022 9.02994 7.4702 8.18922 7.4702ZM11.9647 23.372C11.9919 23.3753 12.0153 23.382 12.0425 23.3853C12.6069 21.2544 13.1751 19.1235 13.7551 16.946C12.5602 17.3788 11.4392 17.3688 10.2677 16.9527C10.8398 19.1235 11.4042 21.2477 11.9647 23.372ZM14.1871 13.5832C12.7159 14.1559 11.2796 14.1459 9.82395 13.5832C9.82395 14.1425 9.82395 14.6753 9.82395 15.2047C9.82395 15.3212 9.9018 15.4044 9.97186 15.491C10.3922 16.0204 11.0072 16.2634 11.7272 16.3134C12.6575 16.3767 13.4826 16.1736 14.0509 15.481C14.1365 15.3778 14.1949 15.2679 14.191 15.1314C14.1832 14.6287 14.1871 14.1226 14.1871 13.5832ZM7.0994 10.1471C7.0994 9.65103 7.09551 9.16159 7.0994 8.66882C7.0994 8.5656 7.04491 8.51233 6.9476 8.46572C6.6012 8.30257 6.11467 8.48237 6.02904 8.80866C5.88892 9.34139 6.42994 10.0306 7.0994 10.1471ZM16.9156 10.1638C17.5811 9.98065 18.0326 9.44127 17.9976 8.89856C17.9781 8.55562 17.55 8.31589 17.1647 8.43243C17.0245 8.47571 16.9078 8.52565 16.9117 8.69213C16.9234 9.17491 16.9156 9.65769 16.9156 10.1638ZM6.53892 21.4608C6.81916 21.4675 7.08772 21.2544 7.09551 21.0113C7.10329 20.7716 6.85419 20.5452 6.57006 20.5352C6.28593 20.5252 6.02515 20.7383 6.01347 20.9847C6.0018 21.2278 6.2509 21.4542 6.53892 21.4608Z" fill="#0671E0"/>
</svg>
