<svg width="24" height="24" viewBox="0 0 24 24" fill="none" xmlns="http://www.w3.org/2000/svg">
<path d="M22.0301 5.14525C22.1475 5.27175 22.2439 5.37718 22.3643 5.50669C22.6865 5.12417 22.9003 4.68443 23.084 4.2206C23.6953 2.69054 22.7407 1.1665 21.0274 0.913495C19.85 0.738803 18.8382 1.15746 17.9288 1.85322C17.6337 2.07911 17.4079 2.09417 17.0827 1.93453C15.4686 1.13938 13.7522 0.720733 11.9575 0.726757C10.1629 0.73278 8.44947 1.16649 6.83846 1.96466C6.55239 2.10622 6.35064 2.08213 6.10673 1.88635C5.41415 1.32613 4.6222 0.97072 3.72786 0.883374C2.61672 0.774944 1.14122 1.32613 0.78891 2.74776C0.66545 3.24473 0.725675 3.72061 0.897315 4.1965C1.06895 4.66937 1.29781 5.1061 1.62302 5.50669C1.73443 5.38621 1.83983 5.27778 1.95726 5.15429C1.72841 4.8049 1.52365 4.44348 1.37008 4.0459C0.915382 2.87426 1.52666 1.70864 2.90881 1.43155C3.73088 1.26589 4.50476 1.43757 5.20638 1.86225C6.49518 2.63933 7.40758 3.71158 7.67558 5.24164C7.8141 6.02474 7.71172 6.7988 7.57922 7.57287C7.45275 8.30778 7.20282 9.01257 7.08237 9.7505C6.88363 10.9794 7.10947 12.1269 7.67558 13.2202C8.14232 14.1208 8.65724 15.0003 9.05773 15.934C9.6118 17.2261 9.95809 18.5724 10.1568 19.964C10.3224 21.1266 10.3797 22.2982 10.4007 23.4729C10.4038 23.5753 10.4128 23.6747 10.3646 23.774C10.2923 23.9307 10.1749 24.009 10.0002 23.9939C9.83764 23.9819 9.73827 23.8945 9.68708 23.7409C9.64794 23.6174 9.65697 23.4879 9.65697 23.3614C9.65697 22.0844 9.56061 20.8163 9.34982 19.5543C9.07881 17.9279 8.54583 16.3948 7.76592 14.9431C7.34134 14.1539 6.88363 13.3799 6.58552 12.5275C6.13685 11.2444 6.22116 9.95531 6.56143 8.66922C6.79028 7.79877 6.99505 6.92831 7.00107 6.01871C7.01311 4.28986 5.70925 2.59415 4.02899 2.17248C3.49901 2.03995 2.9871 2.08513 2.5023 2.35018C2.06868 2.58812 1.86392 3.05799 1.97834 3.53688C2.08072 3.96458 2.27344 4.34709 2.53241 4.69648C2.5836 4.76575 2.61973 4.84105 2.74922 4.829C4.0049 4.70551 4.87815 5.3079 5.50148 6.33195C5.82067 6.85302 5.94413 7.43432 5.79658 8.04273C5.58278 8.93426 4.69146 9.48545 3.74593 9.2716C2.50531 8.98848 1.6983 8.23249 1.39718 6.97651C1.39417 6.96748 1.38814 6.95844 1.39116 6.95241C1.45138 6.45845 1.15929 6.12413 0.894303 5.75667C0.415518 5.08803 0.0511584 4.35011 0.00599006 3.51881C-0.075313 2.07007 0.674483 0.946625 2.04459 0.413513C3.35146 -0.0955029 4.58908 0.151472 5.78152 0.796025C5.96822 0.895419 6.15491 1.00385 6.31752 1.13637C6.48615 1.27794 6.62466 1.25986 6.81437 1.17252C8.60605 0.350259 10.4911 -0.0714063 12.4634 0.00991578C14.1317 0.0822021 15.7276 0.488807 17.2392 1.19962C17.3898 1.27191 17.4862 1.26288 17.6247 1.1665C18.5822 0.482788 19.6332 0.0761753 20.8316 0.157497C22.0662 0.23882 23.6802 1.00385 23.9693 2.88029C24.0837 3.63026 23.8639 4.323 23.5447 4.99165C23.334 5.43139 23.072 5.83499 22.7528 6.20244C22.6685 6.29883 22.6323 6.39219 22.6293 6.51869C22.6143 7.92225 21.4941 9.03366 20.2384 9.27762C18.9195 9.53665 17.9378 8.51862 18.1727 7.13614C18.3925 5.84403 19.7295 4.73262 21.0304 4.81695C21.3345 4.83503 21.458 4.72057 21.5844 4.51275C21.7711 4.20854 21.9247 3.88928 22.006 3.5399C22.1174 3.05799 21.9187 2.59415 21.482 2.3532C20.8286 1.99177 20.1451 2.02188 19.4977 2.32308C17.9288 3.05498 16.7303 4.56396 17.0104 6.70544C17.1278 7.59396 17.3898 8.4403 17.5644 9.31376C17.8535 10.7565 17.6759 12.1269 17.0104 13.4401C16.5286 14.3919 15.9775 15.3075 15.565 16.2954C14.9838 17.6809 14.6466 19.1236 14.481 20.6145C14.3756 21.5452 14.3274 22.4789 14.3244 23.4156C14.3244 23.518 14.3183 23.6204 14.2973 23.7198C14.2581 23.9005 14.1407 23.9939 13.954 23.9999C13.7643 24.003 13.6559 23.8975 13.5987 23.7289C13.5836 23.6807 13.5806 23.6295 13.5806 23.5783C13.6047 21.3735 13.7884 19.1899 14.49 17.0785C14.8483 15.9972 15.3602 14.9882 15.9023 13.9913C16.2756 13.3076 16.646 12.6239 16.8357 11.8588C17.0857 10.8408 16.9712 9.83483 16.7093 8.83788C16.4985 8.0337 16.3148 7.22951 16.2576 6.3922C16.1763 5.16333 16.4924 4.07 17.2874 3.13329C17.9619 2.33512 18.7569 1.6996 19.8078 1.46467C20.4944 1.31107 21.1568 1.36529 21.7832 1.6966C22.5721 2.11526 22.9335 2.97666 22.6805 3.83506C22.554 4.30191 22.3312 4.73563 22.0301 5.14525ZM2.08675 6.51267C2.08374 7.47047 3.02023 8.49151 3.9778 8.57283C4.71555 8.63608 5.1582 8.20237 5.11905 7.46444C5.06786 6.56388 4.26085 5.72053 3.27016 5.53379C2.60167 5.40729 2.08976 5.83198 2.08675 6.51267ZM21.9066 6.53676C21.9096 5.85607 21.4188 5.41934 20.7533 5.51874C19.8861 5.64825 19.1032 6.37111 18.9014 7.2265C18.7087 8.04875 19.1815 8.63006 19.9975 8.57585C20.946 8.50958 21.9006 7.49155 21.9066 6.53676Z" fill="#0671E0"/>
<path d="M12.3911 22.497C12.4484 20.2772 12.5959 18.0695 13.1199 15.9009C13.3818 14.8106 13.7703 13.7654 14.2431 12.7534C14.8152 11.5306 14.8754 10.2806 14.5773 8.98251C14.2431 7.51871 14.1557 6.04587 14.5502 4.57304C14.5863 4.43449 14.6345 4.29895 14.6737 4.1604C14.7399 3.92848 14.6526 3.77789 14.4177 3.7809C13.8968 3.78692 13.421 3.62127 12.9452 3.43754C12.3038 3.18755 11.6504 3.19357 11.009 3.4526C10.5513 3.63633 10.0906 3.78993 9.58468 3.7809C9.34379 3.77789 9.2384 3.92848 9.31368 4.14835C9.84967 5.74769 9.78041 7.35907 9.41606 8.97046C9.11795 10.2897 9.18419 11.5517 9.76536 12.7896C10.4339 14.2142 10.8976 15.7051 11.1565 17.2593C11.3463 18.3918 11.4547 19.5333 11.5299 20.6778C11.5932 21.6447 11.5932 22.6175 11.5962 23.5874C11.5962 23.8524 11.4667 23.9909 11.2439 23.9909C11.0271 23.994 10.8855 23.8403 10.8765 23.5934C10.8735 23.5422 10.8765 23.491 10.8765 23.4398C10.8825 22.1386 10.8283 20.8375 10.7169 19.5393C10.5302 17.3587 10.1207 15.2232 9.16612 13.2353C8.43741 11.7234 8.37417 10.1843 8.74756 8.5789C9.07579 7.16028 9.07579 5.73866 8.61808 4.33209C8.40429 3.67247 8.86199 3.06406 9.55457 3.05804C9.91592 3.05502 10.2622 2.9737 10.5904 2.83214C11.5299 2.42854 12.4634 2.42855 13.4029 2.82612C13.7402 2.97069 14.0925 3.05502 14.4629 3.05804C15.1133 3.06406 15.6071 3.66042 15.4024 4.27184C14.8694 5.85311 14.9808 7.43437 15.3301 9.01865C15.6312 10.38 15.5288 11.6932 14.9417 12.9673C14.2882 14.3889 13.8064 15.8648 13.5535 17.4099C13.3517 18.6357 13.2343 19.8706 13.1771 21.1085C13.1409 21.9248 13.1078 22.741 13.1199 23.5572C13.1229 23.8283 12.9813 23.9849 12.7585 23.9849C12.5236 23.9849 12.4002 23.8434 12.3972 23.5602C12.3881 23.2109 12.3911 22.8555 12.3911 22.497Z" fill="#0671E0"/>
</svg>
