<svg width="20" height="18" viewBox="0 0 20 18" fill="none" xmlns="http://www.w3.org/2000/svg">
<path fill-rule="evenodd" clip-rule="evenodd" d="M18 15C18 15.551 17.551 16 17 16H15V6H17C17.551 6 18 6.449 18 7V15ZM2 15V7C2 6.449 2.449 6 3 6H5V16H3C2.449 16 2 15.551 2 15ZM8 2.5C8 2.224 8.224 2 8.5 2H11.5C11.776 2 12 2.224 12 2.5V4H8V2.5ZM7 16H13V6H7V16ZM17 4H14V2.5C14 1.122 12.878 0 11.5 0H8.5C7.122 0 6 1.122 6 2.5V4H3C1.346 4 0 5.346 0 7V15C0 16.654 1.346 18 3 18H17C18.654 18 20 16.654 20 15V7C20 5.346 18.654 4 17 4Z" fill="#01BDF3"/>
</svg>
